<?xml version="1.0" encoding="UTF-8"?>
<svg xmlns="http://www.w3.org/2000/svg" width="256" height="256" viewBox="0 0 256 256" role="img" aria-label="QR payment placeholder">
  <rect width="256" height="256" rx="24" fill="#0f0b09"/>
  <rect x="18" y="18" width="220" height="220" rx="18" fill="#f0e6da"/>

  <!-- finder patterns -->
  <rect x="34" y="34" width="56" height="56" rx="8" fill="#0f0b09"/>
  <rect x="46" y="46" width="32" height="32" rx="6" fill="#f0e6da"/>
  <rect x="54" y="54" width="16" height="16" rx="4" fill="#0f0b09"/>

  <rect x="166" y="34" width="56" height="56" rx="8" fill="#0f0b09"/>
  <rect x="178" y="46" width="32" height="32" rx="6" fill="#f0e6da"/>
  <rect x="186" y="54" width="16" height="16" rx="4" fill="#0f0b09"/>

  <rect x="34" y="166" width="56" height="56" rx="8" fill="#0f0b09"/>
  <rect x="46" y="178" width="32" height="32" rx="6" fill="#f0e6da"/>
  <rect x="54" y="186" width="16" height="16" rx="4" fill="#0f0b09"/>

  <!-- modules (stylized) -->
  <g fill="#0f0b09" opacity="0.92">
    <rect x="110" y="40" width="12" height="12" rx="2"/>
    <rect x="126" y="40" width="12" height="12" rx="2"/>
    <rect x="110" y="56" width="12" height="12" rx="2"/>
    <rect x="126" y="72" width="12" height="12" rx="2"/>
    <rect x="142" y="56" width="12" height="28" rx="2"/>

    <rect x="110" y="104" width="12" height="12" rx="2"/>
    <rect x="126" y="104" width="28" height="12" rx="2"/>
    <rect x="158" y="104" width="12" height="12" rx="2"/>
    <rect x="110" y="120" width="12" height="28" rx="2"/>
    <rect x="126" y="136" width="12" height="12" rx="2"/>
    <rect x="142" y="120" width="12" height="12" rx="2"/>
    <rect x="158" y="136" width="12" height="12" rx="2"/>

    <rect x="102" y="164" width="12" height="12" rx="2"/>
    <rect x="118" y="164" width="12" height="12" rx="2"/>
    <rect x="134" y="164" width="12" height="12" rx="2"/>
    <rect x="150" y="164" width="12" height="28" rx="2"/>
    <rect x="102" y="180" width="28" height="12" rx="2"/>
    <rect x="134" y="196" width="12" height="12" rx="2"/>
    <rect x="118" y="196" width="12" height="12" rx="2"/>
    <rect x="166" y="164" width="12" height="12" rx="2"/>
    <rect x="182" y="180" width="12" height="12" rx="2"/>
  </g>

  <text x="128" y="248" text-anchor="middle" font-family="Inter, Arial, sans-serif" font-size="10" fill="#c7b6a4">SCAN TO PAY</text>
</svg>
